<?xml version="1.0" standalone="no"?><!DOCTYPE svg PUBLIC "-//W3C//DTD SVG 1.1//EN" "http://www.w3.org/Graphics/SVG/1.1/DTD/svg11.dtd"><svg class="icon" width="200px" height="200.00px" viewBox="0 0 1024 1024" version="1.1" xmlns="http://www.w3.org/2000/svg"><path d="M906.211027 738.541667a87.672657 87.672657 0 0 0 23.678017-63.99464 86.392765 86.392765 0 0 0-23.678017-63.994641 85.752818 85.752818 0 0 0-63.99464-23.678017H183.07159a71.034051 71.034051 0 0 0-47.356034 14.718768 83.832979 83.832979 0 0 0-27.517695 38.396784 73.593837 73.593837 0 0 0-12.798928 55.035391 92.792229 92.792229 0 0 0 24.95791 44.156302l213.102152 262.378025a63.99464 63.99464 0 0 0 25.597856 16.638607 96.631907 96.631907 0 0 0 35.836999 5.759518 99.191693 99.191693 0 0 0 35.836999-7.039411 83.832979 83.832979 0 0 0 26.877749-16.638606 111.350674 111.350674 0 0 0 33.917159-63.994641 71.034051 71.034051 0 0 0-21.758178-63.99464l-99.191692-108.790889h472.280446a83.832979 83.832979 0 0 0 63.994641-24.95791zM120.356843 289.939238A82.553086 82.553086 0 0 0 94.11904 352.014039a83.193033 83.193033 0 0 0 23.678017 63.99464 90.232443 90.232443 0 0 0 63.99464 25.597856H842.856333a83.193033 83.193033 0 0 0 74.87373-49.275873 132.468906 132.468906 0 0 0 8.319303-57.595176 63.99464 63.99464 0 0 0-19.838339-44.796248L680.949893 28.841105a81.91314 81.91314 0 0 0-124.789549 0 72.313944 72.313944 0 0 0-28.797588 56.95523A112.630567 112.630567 0 0 0 542.081523 152.990707l101.111532 110.710728H183.07159a94.072121 94.072121 0 0 0-63.99464 26.237803z" /></svg>