<?xml version="1.0" standalone="no"?><!DOCTYPE svg PUBLIC "-//W3C//DTD SVG 1.1//EN" "http://www.w3.org/Graphics/SVG/1.1/DTD/svg11.dtd"><svg class="icon" width="200px" height="200.00px" viewBox="0 0 1024 1024" version="1.1" xmlns="http://www.w3.org/2000/svg"><path fill="#ffffff" d="M1002.666667 614.4c-55.466667-29.866667-106.666667-59.733333-170.666667-93.866667L810.666667 512l-21.333334 12.8c-21.333333 8.533333-38.4 21.333333-55.466666 29.866667-42.666667 21.333333-81.066667 42.666667-115.2 64l-21.333334 8.533333v25.6c0 145.066667 72.533333 277.333333 187.733334 358.4l25.6 12.8 25.6-17.066667c119.466667-76.8 187.733333-213.333333 187.733333-358.4v-25.6l-21.333333-8.533333zM810.666667 921.6c-72.533333-59.733333-119.466667-149.333333-128-243.2 25.6-17.066667 59.733333-29.866667 89.6-46.933333 12.8-8.533333 25.6-12.8 38.4-21.333334 46.933333 25.6 85.333333 46.933333 128 68.266667-8.533333 93.866667-55.466667 183.466667-128 243.2z m-294.4 17.066667H123.733333c-17.066667 0-25.6-8.533333-29.866666-12.8-8.533333-12.8-8.533333-25.6-8.533334-38.4 42.666667-196.266667 217.6-341.333333 422.4-341.333334h4.266667c149.333333 0 273.066667-123.733333 273.066667-273.066666S661.333333 0 512 0 238.933333 123.733333 238.933333 273.066667c0 89.6 42.666667 166.4 106.666667 213.333333-170.666667 59.733333-302.933333 200.533333-341.333333 379.733333-8.533333 38.4 0 76.8 25.6 106.666667 21.333333 34.133333 59.733333 51.2 93.866666 51.2H512c25.6 0 42.666667-17.066667 42.666667-42.666667s-17.066667-42.666667-38.4-42.666666zM324.266667 273.066667C324.266667 170.666667 409.6 85.333333 512 85.333333c102.4 0 187.733333 85.333333 187.733333 187.733334 0 102.4-85.333333 187.733333-187.733333 187.733333h-4.266667c-102.4-4.266667-183.466667-85.333333-183.466666-187.733333z" /></svg>