<?xml version="1.0" standalone="no"?><!DOCTYPE svg PUBLIC "-//W3C//DTD SVG 1.1//EN" "http://www.w3.org/Graphics/SVG/1.1/DTD/svg11.dtd"><svg class="icon" width="200px" height="200.00px" viewBox="0 0 1024 1024" version="1.1" xmlns="http://www.w3.org/2000/svg"><path fill="#333333" d="M633.261785 510.165212l64.103993-58.488089c9.920954-9.052167 7.91118-19.365046 7.91118-19.365046 0-11.114129-7.662517-16.72901-7.662517-16.72901-8.41567-7.677866-18.712177-7.79043-18.712177-7.79043-13.440104 0-21.352307 7.79043-21.352307 7.79043l-64.092737 58.346873-64.09376-58.346873c0 0-7.91118-7.79043-21.349237-7.79043 0 0-10.296507 0.11461-18.7132 7.79043 0 0-7.662517 5.613858-7.662517 16.72901 0 0-2.006703 10.313903 7.913227 19.365046l64.103993 58.488089-63.390749 57.706283c-8.792247 6.529717-8.792247 19.479657-8.792247 19.479657 0 10.082636 8.665357 18.21792 8.665357 18.21792 7.725962 7.04751 18.588357 6.417153 18.588357 6.417153 14.190187 0 20.721951-7.102768 20.721951-7.102768l64.007803-58.401108 64.007803 58.401108c0 0 6.531763 7.102768 20.721951 7.102768 0 0 10.864442 0.630357 18.588357-6.417153 0 0 8.665357-8.136308 8.665357-18.21792 0 0 0-12.948917-8.792247-19.479657L633.261785 510.165212 633.261785 510.165212zM955.426205 688.929642 955.426205 333.129146c-3.721765-100.162234-110.24487-102.709243-110.24487-102.709243L345.127412 230.419903c-13.953803 0-22.018479 7.215332-22.018479 7.215332l-251.733325 253.79938c-8.256034 7.744381-7.90811 17.827017-7.90811 17.827017 0 13.58132 8.606005 21.220301 8.606005 21.220301l248.864998 251.53685c9.611915 8.770757 20.777209 7.780197 20.777209 7.780197l503.465626 0C958.216761 784.281313 955.426205 688.929642 955.426205 688.929642L955.426205 688.929642zM880.371812 679.596066c0 0-1.472538 47.50699-51.774177 47.50699L361.445052 727.103056 147.283438 509.897106l214.895325-215.899188 1.159406-1.308809L828.595588 292.689109c0 0 51.774177 4.832052 51.774177 49.92404l0 336.982918L880.371812 679.596066 880.371812 679.596066z" /></svg>