<?xml version="1.0" standalone="no"?><!DOCTYPE svg PUBLIC "-//W3C//DTD SVG 1.1//EN" "http://www.w3.org/Graphics/SVG/1.1/DTD/svg11.dtd"><svg class="icon" width="128" height="128" viewBox="0 0 1024 1024" version="1.1" xmlns="http://www.w3.org/2000/svg"><path d="M865.02 599.07c-30.45-16.43-67.25-14.84-96.09 4.18l-194.73 128h-59.51c20.83-21.62 33.65-51.01 33.65-83.4 0-14.47-11.73-26.21-26.21-26.21H292.57v-36.73c0-20.17-16.35-36.51-36.51-36.51H146.23c-20.17 0-36.51 16.35-36.51 36.51v329.44c0 20.17 16.35 36.51 36.51 36.51h109.83c20.17 0 36.51-16.35 36.51-36.51v-0.06H622.2l249.07-153.75 0.02-0.02c26.93-17.38 43-46.86 43-78.88 0-34.53-18.88-66.18-49.27-82.57z"  /><path d="M353.06 566.78h169.08c33.17 0 61.75 20.02 74.29 48.62 6.34 14.45 23.92 19.87 37.11 11.2l105.2-69.15c24.33-16.05 52.58-24.53 81.7-24.53 12.04 0 39.45-2.31 45.54-14.44 20.17-40.15 30.37-85.84 30.37-133.77 0-183.82-159.45-330.41-347.59-308.98C414.02 91.07 302.12 196.09 278.98 329.7c-14.17 81.8 4.04 158.67 43.43 220.84 6.56 10.36 18.38 16.24 30.65 16.24z m127.9-307.39c-10.71-10.71-10.71-28.07 0-38.79s28.07-10.71 38.79 0l65.52 65.54 65.52-65.54c10.71-10.71 28.07-10.71 38.79 0 10.71 10.71 10.71 28.07 0 38.79l-45.17 45.18h33.53c15.14 0 27.43 12.29 27.43 27.43s-12.29 27.43-27.43 27.43H612.7v19.64h63.16c15.14 0 27.43 12.29 27.43 27.43s-12.29 27.43-27.43 27.43H612.7v60.88c0 15.14-12.29 27.43-27.43 27.43s-27.43-12.29-27.43-27.43v-60.88h-63.16c-15.14 0-27.43-12.29-27.43-27.43s12.29-27.43 27.43-27.43h63.16v-19.64h-65.23c-15.14 0-27.43-12.29-27.43-27.43s12.29-27.43 27.43-27.43h33.53l-45.18-45.18z"  /></svg>