<?xml version="1.0" standalone="no"?><!DOCTYPE svg PUBLIC "-//W3C//DTD SVG 1.1//EN" "http://www.w3.org/Graphics/SVG/1.1/DTD/svg11.dtd"><svg t="1629343912530" class="icon" viewBox="0 0 1024 1024" version="1.1" xmlns="http://www.w3.org/2000/svg" p-id="2304" xmlns:xlink="http://www.w3.org/1999/xlink" width="200" height="200"><defs><style type="text/css"></style></defs><path d="M128 128h42.666667a42.666667 42.666667 0 0 0 0-85.333333H106.666667A64 64 0 0 0 42.666667 106.666667V170.666667a42.666667 42.666667 0 0 0 85.333333 0V128zM896 128v42.666667a42.666667 42.666667 0 1 0 85.333333 0V106.666667A64 64 0 0 0 917.333333 42.666667H853.333333a42.666667 42.666667 0 1 0 0 85.333333h42.666667zM810.666667 938.666667a42.666667 42.666667 0 0 1 42.666666-42.666667h42.666667v-42.666667a42.666667 42.666667 0 1 1 85.333333 0v64a64 64 0 0 1-64 64H853.333333a42.666667 42.666667 0 0 1-42.666666-42.666666zM128 896v-42.666667a42.666667 42.666667 0 1 0-85.333333 0v64A64 64 0 0 0 106.666667 981.333333H170.666667a42.666667 42.666667 0 1 0 0-85.333333H128zM170.666667 725.333333h85.333333V298.666667H170.666667v426.666666zM725.333333 725.333333h-170.666666V298.666667h170.666666v426.666666zM384 725.333333h85.333333V298.666667H384v426.666666zM810.666667 725.333333h85.333333V298.666667h-85.333333v426.666666z" p-id="2305"></path></svg>