<?xml version="1.0" standalone="no"?><!DOCTYPE svg PUBLIC "-//W3C//DTD SVG 1.1//EN" "http://www.w3.org/Graphics/SVG/1.1/DTD/svg11.dtd"><svg class="icon" width="200px" height="200.00px" viewBox="0 0 1024 1024" version="1.1" xmlns="http://www.w3.org/2000/svg"><path fill="#ffffff" d="M845.971699 503.156046c-25.982239-16.089002-33.277252-32.57773-28.880258-57.960379 7.195081-40.971992-11.392212-63.35669-48.067141-77.347126-179.877037-68.453206-358.954621-68.453206-538.132136 2.498292-33.577047 13.290914-48.267005 34.976091-42.770763 71.251293 4.396994 28.680394-3.997267 47.467551-32.277935 65.455255-61.857714 39.373085-61.457988 128.112423 0.399727 168.78462 28.480531 18.787157 41.771445 42.271104 54.162975 70.951498 50.865229 118.618913 115.121304 226.145408 243.233727 277.210501h88.139748c99.032302-31.178686 163.588172-100.931004 210.056407-190.070069 16.58866-31.678345 31.97814-63.95628 46.368302-96.733874 10.592759-24.083537 23.384015-42.970626 47.167757-58.559968 65.954914-43.270421 66.754367-134.508051 0.59959-175.480043z m-53.263589 122.01659c-39.473016 5.096516-45.169123 34.776227-56.961062 62.7571-28.480531 67.753684-59.559286 134.308188-108.725676 190.070069-80.045282 90.737972-170.283595 90.538109-249.529423-0.999317-49.566117-57.360789-81.444325-125.314336-110.524446-194.666927-10.0931-24.183468-12.491461-53.863179-51.664683-54.662633-18.287499-0.399727-27.581146-21.485313-25.48258-41.671514 1.998634-19.486679 18.287499-24.583195 32.377867-21.485312 48.267005 10.592759 48.5668-17.78784 45.468917-51.464819-1.19918-12.891188-0.199863-25.982239-0.199863-43.570216 157.292476 60.458671 312.68625 61.258124 470.178589-0.499658 0 16.288865 0.399727 29.180053-0.099932 42.07124-1.099249 32.57773-6.895286 68.053479 46.967893 53.063726 12.491461-3.497609 27.181419 1.099249 30.17937 17.587977 3.697472 19.786474-2.598224 40.87206-21.984971 43.470284z"  /><path fill="#ffffff" d="M906.630233 189.570411c-53.963111-8.694057-103.429296-29.379916-150.197326-56.561335-69.852249-40.672197-131.909827-93.635991-204.3603-130.410852h-68.753001C364.900556 78.446375 253.576657 167.785303 108.775642 192.668293c-26.282034 4.496926-31.278618 17.887772-18.787158 41.271787 22.084903 41.171855 55.462086 71.551088 91.437494 100.031619 10.193032 8.094467 17.887772 9.593442 30.079438 1.79877 107.826291-68.353274 229.243291-69.052796 350.660291-64.955596 88.539475 2.997951 176.579291 12.791256 252.427442 65.355323 12.391529 8.594125 20.186201 4.996584 30.079438-2.698155 33.577047-26.282034 63.856348-55.162291 86.840636-91.537426 20.086269-31.878208 9.193715-46.867961-24.88299-52.364204zM512 235.938714c-26.282034-0.59959-64.056212-47.96721-61.857714-82.943301 2.39836-38.073973 34.976091-39.772812 62.757099-45.468917 29.379916 5.596174 61.058261 8.993852 62.057578 46.867961 0.799453 37.374451-36.175271 82.143847-62.956963 81.544257zM666.794184 556.919293c-95.134966 2.598224-190.269933-10.992486-285.404899-0.099931-17.887772 0-35.875476-0.699522-53.763248 0.099931-53.463453 2.498292-72.750268 32.877525-53.663316 84.64214 16.388797 44.369669 48.267005 67.453889 93.735923 67.453889 45.169123 0 84.442276-31.478482 92.336879-81.943984 4.596858-29.379916 16.888455-36.874793 40.27247-37.374451 25.182785-0.59959 40.172538 5.496243 44.4696 38.173904 5.796038 43.870011 35.975407 71.850883 78.446375 79.845419 38.4737 7.295013 71.05143-7.295013 94.135649-40.072607 17.987704-25.48258 28.480531-54.762565 13.790573-85.641456-13.091051-27.481214-39.972675-25.782375-64.356006-25.082854z"  /></svg>